<svg clip-rule="evenodd" fill-rule="evenodd" stroke-linejoin="round" stroke-miterlimit="2" viewBox="0 0 1024 1024" xmlns="http://www.w3.org/2000/svg"><path d="m853 247.038c0-99.366-90.177-180.038-201.25-180.038h-402.5c-111.073 0-201.25 80.672-201.25 180.038v360.076c0 99.365 90.177 180.038 201.25 180.038h402.5c111.073 0 201.25-80.673 201.25-180.038z" fill="#e8ebde" transform="matrix(1.27205 0 0 1.42192 -61.0584 -95.2688)"/><g transform="matrix(.860512 0 0 .860512 74.2844 88.6827)"><path d="m795.362 220.334c214.528 98.567 207.728 301.968 123.247 397.966-180.889 205.541-444.369 206.774-588.658 183.118-176.82-28.989-292.25-93.166-285.87-252.699 5.167-129.212 98.408-258.155 296.675-337.899 179.815-72.322 373.577-27.716 454.606 9.514zm-382.302 102.077c-23.464 9.341-121.101 43.013-169.527 102.455-51.84 63.634-55.481 163.315-55.481 163.315s26.856-85.422 79.326-145.666c48.013-55.127 151.88-105.224 151.88-105.224 2.156 18.44 10.633 90.738 50.85 137.908 44.735 52.47 156.668 93.841 156.668 93.841s-93.407-64.805-132.933-114.791c-35.207-44.524-51.342-120.316-51.342-120.316s128.758 14.197 212.886 6.995c81.143-6.947 174.63-54.981 174.63-54.981s-120.862 25.191-185.04 31.007c-63.892 5.79-196.494-1.266-196.494-1.266 13.886-8.147 44.719-31.855 67.237-58.403 20.41-24.064 29.557-76.031 29.557-76.031s-17.532 35.755-46.851 72.971c-25.087 31.844-71.62 56.664-71.62 56.664s-83.403-32.533-132.923-32.511c-55.854.023-106.858 29.97-106.858 29.97s49.075-16.489 104.959-13.54c51.492 2.717 121.076 27.603 121.076 27.603z" fill="#f0a738"/><path d="m973.268 455.392.067 1.625.04 1.129.049 1.626.037 1.618.031 1.941.008.809.006.919.002 1.809-.01 1.627-.009.805-.032 1.905-.039 1.631-.023.803-.065 1.883-.068 1.638-.038.802-.039.798-.106 1.895-.101 1.613-.054.796-.137 1.875-.13 1.616-.068.794-.168 1.848-.159 1.626-.166 1.579-.208 1.864-.19 1.594-.097.784-.239 1.84-.219 1.598-.223 1.56-.279 1.848-.248 1.571-.126.774-.307 1.825-.276 1.572-.301 1.647-.327 1.721-.304 1.546-.154.763-.376 1.807-.331 1.544-.374 1.681-.376 1.641-.359 1.52-.182.752-.441 1.784-.386 1.516-.442 1.689-.427 1.582-.412 1.492-.491 1.727-.442 1.518-.44 1.472-.531 1.734-.465 1.482-.518 1.611-.517 1.572-.489 1.454-.575 1.668-.523 1.486-.514 1.432-.617 1.679-.542 1.443-.578 1.509-.616 1.576-.564 1.412-.651 1.6-.604 1.453-.587 1.388-.697 1.615-.617 1.402-.61 1.364-.736 1.612-.636 1.367-.72 1.521-.685 1.421-.657 1.338-.772 1.547-.69 1.356-.678 1.313-.813 1.544-.705 1.317-.701 1.289-.847 1.531-.724 1.286-.842 1.47-.761 1.308-.744 1.258-.885 1.471-.772 1.262-.818 1.317-.867 1.372-.788 1.227-.904 1.387-.834 1.257-.806 1.198-.952 1.391-.837 1.204-.825 1.17-.989 1.378-.849 1.165-.958 1.294-.908 1.206-.865 1.133-1.014 1.305-.901 1.142-.883 1.103-1.053 1.293-.909 1.099-.999 1.19-.986 1.155-.923 1.064-.459.525c-180.889 205.541-444.369 206.774-588.658 183.118-176.82-28.989-292.25-93.166-285.87-252.699l.298.671c51.085 114.181 226.346 175.041 412.648 172.264 162.578-2.424 459.858-116.544 516.241-266.262z" fill="#db9423"/></g></svg>