<?xml version="1.0" encoding="UTF-8" standalone="no"?>
<!DOCTYPE svg PUBLIC "-//W3C//DTD SVG 1.1//EN" "http://www.w3.org/Graphics/SVG/1.1/DTD/svg11.dtd">
<svg width="100%" height="100%" viewBox="0 0 96 128" version="1.1" xmlns="http://www.w3.org/2000/svg" xmlns:xlink="http://www.w3.org/1999/xlink" xml:space="preserve" xmlns:serif="http://www.serif.com/" style="fill-rule:evenodd;clip-rule:evenodd;">
    <g id="json" transform="matrix(1,0,0,1,-16,-8.88178e-16)">
        <path d="M112,117.204L112,34L78,0L26.796,0C20.838,0 16,4.838 16,10.796L16,117.204C16,123.162 20.838,128 26.796,128L101.204,128C107.162,128 112,123.162 112,117.204Z" style="fill:url(#_Radial1);"/>
        <g transform="matrix(0.0715,0,0,0.0715,34.2724,35.4403)">
            <g transform="matrix(33.3333,0,0,33.3333,15.7702,-0.563146)">
                <path d="M2,20L2,4C2,3.448 2.448,3 3,3L8.448,3C8.792,3 9.111,3.176 9.294,3.467L10.595,5.533C10.778,5.824 11.097,6 11.441,6L21,6C21.552,6 22,6.448 22,7L22,20C22,20.552 21.552,21 21,21L3,21C2.448,21 2,20.552 2,20Z" style="fill:none;fill-rule:nonzero;stroke:white;stroke-width:2px;"/>
            </g>
            <g transform="matrix(33.3333,0,0,33.3333,15.3333,-0.333333)">
                <rect x="14" y="7" width="2" height="2" style="fill:white;"/>
            </g>
            <g transform="matrix(33.3333,0,0,33.3333,15.6667,8.88178e-16)">
                <rect x="16" y="9" width="2" height="2" style="fill:white;"/>
            </g>
            <g transform="matrix(33.3333,0,0,33.3333,15.3333,-0.666667)">
                <rect x="14" y="11" width="2" height="2" style="fill:white;"/>
            </g>
            <g transform="matrix(33.3333,0,0,33.3333,15.6667,-0.333333)">
                <rect x="16" y="13" width="2" height="2" style="fill:white;"/>
            </g>
            <g transform="matrix(33.3333,0,0,33.3333,15.3333,-5.59552e-14)">
                <rect x="14" y="15" width="2" height="2" style="fill:white;"/>
            </g>
            <g transform="matrix(33.3333,0,0,33.3333,15.6667,-0.666667)">
                <rect x="16" y="17" width="2" height="2" style="fill:white;"/>
            </g>
            <g transform="matrix(33.3333,0,0,33.3333,15.3333,-0.666667)">
                <rect x="14" y="17" width="2" height="2" style="fill:white;"/>
            </g>
        </g>
        <g transform="matrix(1,0,0,1,29.8052,2.66276)">
            <text x="22px" y="111px" style="font-family:'DINAlternate-Bold', 'DIN Alternate', sans-serif;font-weight:700;font-size:16.667px;fill:white;">.zip</text>
        </g>
    </g>
    <g transform="matrix(1,0,0,1,-16,0)">
        <path d="M112,34L78,0L78,25.5C78,30.191 81.809,34 86.5,34L112,34ZM103.5,0L86.5,0L103.5,0Z" style="fill:white;"/>
    </g>
    <defs>
        <radialGradient id="_Radial1" cx="0" cy="0" r="1" gradientUnits="userSpaceOnUse" gradientTransform="matrix(96,0,0,128,16,64)"><stop offset="0" style="stop-color:rgb(184,53,86);stop-opacity:1"/><stop offset="1" style="stop-color:rgb(106,37,54);stop-opacity:1"/></radialGradient>
    </defs>
</svg>
