<?xml version="1.0" encoding="UTF-8" standalone="no"?>
<!DOCTYPE svg PUBLIC "-//W3C//DTD SVG 1.1//EN" "http://www.w3.org/Graphics/SVG/1.1/DTD/svg11.dtd">
<svg width="100%" height="100%" viewBox="0 0 1024 1024" version="1.1" xmlns="http://www.w3.org/2000/svg" xmlns:xlink="http://www.w3.org/1999/xlink" xml:space="preserve" xmlns:serif="http://www.serif.com/" style="fill-rule:evenodd;clip-rule:evenodd;stroke-linejoin:round;stroke-miterlimit:2;">
    <path d="M256,256L128,256C57.355,256 0,313.355 0,384L0,640C0,710.645 57.355,768 128,768L256,768L256,896C256,966.645 313.355,1024 384,1024L640,1024C710.645,1024 768,966.645 768,896L768,768L896,768C966.645,768 1024,710.645 1024,640L1024,384C1024,313.355 966.645,256 896,256L768,256L768,128C768,57.355 710.645,0 640,0L384,0C313.355,0 256,57.355 256,128L256,256Z"/>
</svg>
